# xmcd
#
# Track frame offsets: 
#        150
#        30823
#        48283
#        60811
#        68970
#        88734
#        110128
#        129737
#        140161
#        169495
#        188054
#        216020
#        247529
#        264204
#        285426
#        302013
#        319339
#        327566
#        341578
#        344681
#
# Disc length: 4737 seconds
#
# Revision: 0
# Processed by: cddbd v1.5.2PL0 Copyright (c) Steve Scherf et al.
# Submitted via: ExactAudioCopy v0.95b3
#
DISCID=2a127f14
DTITLE=Phil Spector  - Rare Masters CD 3  FLAC
DYEAR=1900
DGENRE=
TTITLE0=Hold Me Tight (takes 11 - 13) - The Treasures
TTITLE1=Hold Me Tight (take 14) - The Treasures
TTITLE2=Hold Me Tight (takes 15 - 18) - The Treasures
TTITLE3=Hold Me Tight (takes 19  - 20) - The Treasures
TTITLE4=Hold Me Tight (takes 21 - 24) - The Treasures
TTITLE5=Hold Me Tight (takes 25 - 28) - The Treasures
TTITLE6=Hold Me Tight (take 29) - The Treasures
TTITLE7=Hold Me Tight (takes 30 - 31) - The Treasures
TTITLE8=River Deep, Mountain High (takes 1 - 4) - Ike and Tine Turner
TTITLE9=River Deep, Mountain High (take5) - Ike and Tine Turner
TTITLE10=River Deep, Mountain High (takes 6 - 11) - Ike and Tine Turne
TTITLE10=r
TTITLE11=River Deep, Mountain High (takes 12 - 14) - Ike and Tine Turn
TTITLE11=er
TTITLE12=River Deep, Mountain High (take 15) - Ike and Tine Turner
TTITLE13=River Deep, Mountain High (takes 16 - 17) - Ike and Tine Turn
TTITLE13=er
TTITLE14=River Deep, Mountain High (take 18 and b\\\\vox) - Ike and Tina
TTITLE15=River Deep, Mountain High (take 18 and all vocals) - Ike and Ti
TTITLE15=na
TTITLE16=Phil's Polka (take 6) - Phil Spector
TTITLE17=Phil's Polka (takes 7 - 8) - Phil Spector
TTITLE18=Sonny Bono Mystery Track - Sonny Bono
TTITLE19=Unknown Take - Phil Spector
EXTD=
EXTT0=
EXTT1=
EXTT2=
EXTT3=
EXTT4=
EXTT5=
EXTT6=
EXTT7=
EXTT8=
EXTT9=
EXTT10=
EXTT11=
EXTT12=
EXTT13=
EXTT14=
EXTT15=
EXTT16=
EXTT17=
EXTT18=
EXTT19=
PLAYORDER=
